HIERARCHY
ROOT pelvis
{
  OFFSET 0 100 0
  CHANNELS 6 Xposition Yposition Zposition Zrotation Xrotation Yrotation
  JOINT pelvis_right_femur
  {
    OFFSET -10.78128 -3.44521 -0.5502486
    CHANNELS 3 Zrotation Xrotation Yrotation
    JOINT right_femur_tibia
    {
      OFFSET -0.8047443 -44.0398 -0.1307829
      CHANNELS 3 Zrotation Xrotation Yrotation
      JOINT right_tibia_foot
      {
        OFFSET 3.006224 -47.83518 -5
        CHANNELS 3 Zrotation Xrotation Yrotation
        End Site
        {
          OFFSET 0 -5 15
        }
      }
    }
  }
  JOINT pelvis_left_femur
  {
    OFFSET 10.78128 -3.44521 -0.5502486
    CHANNELS 3 Zrotation Xrotation Yrotation
    JOINT left_femur_tibia
    {
      OFFSET 0.8047443 -44.0398 -0.1307829
      CHANNELS 3 Zrotation Xrotation Yrotation
      JOINT left_tibia_foot
      {
        OFFSET -4.370144 -48.10324 -4.275266
        CHANNELS 3 Zrotation Xrotation Yrotation
        End Site
        {
          OFFSET 0 -5 15
        }
      }
    }
  }
  JOINT pelvis_spine1
  {
    OFFSET 0 6.468898 -3.129235
    CHANNELS 3 Zrotation Xrotation Yrotation
    JOINT spine1
    {
      OFFSET 0 23.15396 4.99043
      CHANNELS 3 Zrotation Xrotation Yrotation
      JOINT spine2
      {
        OFFSET 0 20.79997 -5.064912
        CHANNELS 3 Zrotation Xrotation Yrotation
        JOINT neck
        {
          OFFSET 0 14.38658 9.616178
          CHANNELS 3 Zrotation Xrotation Yrotation
          End Site
          {
            OFFSET 0 20 0
          }
        }
      }
      JOINT right_manubrium
      {
        OFFSET -5.722621 16.35077 3.967754
        CHANNELS 3 Zrotation Xrotation Yrotation
        JOINT right_clavicle
        {
          OFFSET -13.16364 1.694482 -4.693211
          CHANNELS 3 Zrotation Xrotation Yrotation
          JOINT right_humerus
          {
            OFFSET -28.5034 -0.3100689 -2.792744
            CHANNELS 3 Zrotation Xrotation Yrotation
            JOINT right_radius
            {
              OFFSET -25.15693 0.02248979 -1.271978
              CHANNELS 3 Zrotation Xrotation Yrotation
              End Site
              {
                OFFSET -15 0 0
              }
            }
          }
        }
      }
      JOINT left_manubrium
      {
        OFFSET 5.722621 16.35077 3.967754
        CHANNELS 3 Zrotation Xrotation Yrotation
        JOINT left_clavicle
        {
          OFFSET 13.16364 1.694482 -4.693211
          CHANNELS 3 Zrotation Xrotation Yrotation
          JOINT left_humerus
          {
            OFFSET 29.39168 -1.063119 -2.237045
            CHANNELS 3 Zrotation Xrotation Yrotation
            JOINT left_radius
            {
              OFFSET 24.59957 -0.9528479 0.9047498
              CHANNELS 3 Zrotation Xrotation Yrotation
              End Site
              {
                OFFSET 15 -0 -0
              }
            }
          }
        }
      }
    }
  }
}
MOTION
Frames: 21
Frame Time: 0.0416666666667
0 103.5113 0 2.069505 -0.1117082 0.1557211 2.630436 -15.30688 10.93741 -0 39.81133 -0 -5.654979 -18.66369 -3.6022 -8.045599 9.291212 -22.83414 -0 5.173605 -0 15.58418 -12.29504 29.87998 -4.890036 -4.816446 5.47823 2.950744 10.22937 -8.034182 1.142441 21.88815 6.301719 2.490168 -24.28946 9.195585 7.239075 -20.16109 12.01802 85.76349 38.89091 -18.79935 -0 0 15.27202 -5.771333 7.453852 4.247433 5.250909 -19.42605 -0.9969591 -90.60472 20.43354 19.01153 0 0 -15.77891 15.65599 13.11407 -3.907491
0.3259541 104.0048 1.718157 1.760698 0.1734938 0.2895713 3.026003 -16.92966 10.39176 -0 38.44909 -0 -5.766609 -17.37924 -3.193258 -7.886403 9.328283 -22.43504 -0 4.988447 -0 15.31283 -12.75275 29.27278 -4.618639 -4.523814 5.402153 2.976542 10.3435 -8.032898 1.120372 21.70566 6.435261 2.62111 -24.59735 9.244667 7.058888 -20.25703 12.05828 85.88621 38.59462 -18.89262 -0 0 15.25483 -6.135208 7.535067 4.442686 5.45763 -19.73929 -1.180414 -90.57801 20.15208 19.11295 0 0 -16.34996 15.89308 12.99221 -4.083204
0.7063433 104.1772 3.980966 0.3607281 0.3272054 0.4351541 4.220299 -23.04908 7.368352 -0 33.39114 -0 -6.433646 -11.45697 -1.907141 -6.808846 10.5994 -20.76117 -0 4.811846 -0 12.00784 -15.71869 25.83457 -3.293662 -2.967028 4.413763 2.776604 10.42364 -7.706718 1.250735 21.56594 6.944229 3.036104 -25.26945 9.615477 5.765156 -20.02815 11.92824 86.66351 35.87368 -19.1018 -0 0 14.44982 -8.755096 8.339956 5.654018 6.148932 -20.76636 -2.25143 -90.51502 21.06771 18.92491 0 0 -18.51966 14.57563 14.14767 -2.427482
1.103098 104.216 6.397323 -0.03545732 1.217839 0.5531752 5.029421 -26.17022 7.104905 -0 29.6197 -0 -5.933859 -10.75364 -1.565706 -6.720267 11.13918 -20.47013 -0 4.914729 -0 11.32654 -17.06164 25.11105 -3.032863 -2.560086 4.484837 2.947201 10.19039 -7.740153 1.35597 21.23712 7.008462 3.095345 -25.84193 9.846163 5.568968 -19.94452 11.7771 86.74382 35.88422 -19.48835 -0 0 14.52396 -8.291378 8.346472 5.407564 6.506375 -20.92375 -2.160703 -90.68795 21.70257 19.12365 0 0 -19.92055 14.05522 14.02074 -1.682514
1.524233 104.0473 9.2566 -0.5758627 2.389115 0.6782412 6.077968 -31.05429 6.140756 -0 23.44006 -0 -5.719448 -8.15825 -0.7629743 -6.519605 11.90444 -19.3639 -0 6.153641 -0 10.39934 -18.90064 23.7264 -2.65846 -1.863331 4.480757 3.100255 10.11284 -7.791336 1.489543 20.72823 7.142708 3.424426 -26.35293 9.979227 5.326704 -19.59162 11.59502 86.9526 36.16871 -20.05543 -0 0 14.1441 -8.404303 8.720076 5.181359 7.203044 -21.52738 -2.241377 -90.31467 21.46665 18.63065 0 0 -22.08631 14.3874 13.59983 -2.029712
1.935749 103.732 12.5393 -0.8201683 3.124415 0.8334855 6.68471 -34.22965 5.28841 -0 18.78202 -0 -5.649613 -5.688909 -0.1779066 -6.398402 12.66989 -18.44963 -0 7.939152 -0 9.361057 -20.46265 22.62579 -2.51559 -1.369184 4.400747 3.128236 10.01115 -7.781802 1.637789 20.45468 7.213553 3.750951 -26.45638 10.00144 5.285545 -19.03418 11.40943 87.08354 36.6744 -20.48934 -0 0 13.50849 -8.737427 9.328093 4.985378 7.696239 -21.90752 -2.308682 -89.92194 21.5164 17.97894 0 0 -23.62283 14.34625 13.58117 -2.083366
2.287835 103.3134 16.48455 -0.8656585 3.089036 1.085442 6.559868 -36.12513 3.385434 -0 14.82031 -0 -6.225055 -2.145711 0.3758801 -6.090373 13.72544 -16.90217 -0 10.99967 -0 7.391635 -21.86541 20.76449 -2.40722 -0.8200378 3.92164 2.888074 9.925345 -7.661971 1.776033 20.5519 7.235453 4.190942 -25.69396 9.691021 5.175746 -17.91335 11.16191 87.35612 36.84208 -20.79088 -0 0 12.05121 -10.20293 10.33161 5.076608 8.125578 -22.39624 -2.726362 -88.9228 21.35962 16.24831 0 0 -24.69784 14.22046 14.04617 -2.391868
2.534671 102.9081 21.16824 -0.641141 2.207935 1.500798 5.680859 -35.43521 0.9198927 -0 13.04179 -0 -7.204725 0.8145474 0.6210245 -5.648258 14.77669 -15.12036 -0 14.56571 -0 4.524904 -22.40785 18.2884 -2.323974 -0.4359622 3.117139 2.420118 9.683769 -7.458158 1.807804 21.10874 7.147946 4.539099 -24.08873 9.018214 5.019186 -16.41586 10.89018 87.67619 36.41945 -20.85442 -0 0 10.13552 -12.20396 11.24253 5.402638 8.248194 -22.67658 -3.397682 -87.68381 21.42898 13.94543 0 0 -24.7328 13.52728 14.97017 -2.294565
2.66097 102.6886 26.52169 -0.3916922 0.7671215 2.088939 4.669626 -31.95411 -1.427206 -0 13.99867 -0 -8.332289 1.835235 0.454612 -5.011033 15.42132 -13.34919 -0 17.92213 -0 0.7602333 -21.22533 15.07088 -1.954562 -0.3335052 2.092973 1.8662 9.16417 -7.244969 1.57453 22.03485 7.0046 4.600307 -22.07474 8.075916 4.699649 -14.92802 10.69748 88.0872 34.92609 -20.73104 -0 0 8.208109 -14.05006 11.47519 5.973555 7.895438 -22.58346 -4.245756 -86.69533 22.09346 11.93188 0 0 -23.58225 11.87534 16.08996 -1.049401
2.745892 102.8258 32.16992 -0.9274186 0.1596534 2.632742 4.853349 -28.32433 -2.043936 -0 16.34304 -0 -9.206268 0.01077319 -0.04425914 -4.207136 15.06758 -12.52924 -0 20.0956 -0 -2.696363 -18.1624 11.9517 -0.7781524 -0.5987682 1.383685 1.720714 8.470255 -7.198124 1.093933 22.71277 7.043832 4.04552 -21.6307 7.705074 4.034821 -14.5555 10.76324 88.85393 32.36596 -20.92539 -0 0 7.060668 -14.43804 10.59518 6.905477 6.922464 -22.11234 -4.679381 -87.0741 23.94881 12.3946 0 0 -22.24565 9.064027 16.73632 2.556865
2.871899 103.3444 37.89513 -2.288535 0.7925184 2.889992 6.12943 -27.10541 -1.031837 -0 16.72508 -0 -10.2452 -2.491465 -0.6912237 -3.496483 13.9701 -12.61107 -0 24.34312 -0 -4.367795 -14.6354 9.911132 0.9191745 -1.121679 1.425949 2.06334 8.196331 -7.345414 0.8251975 22.81521 7.26044 3.073302 -23.37104 8.403285 2.9048 -15.31476 10.96507 90.49119 29.88636 -22.08988 -0 0 6.024779 -14.08618 9.692251 8.21139 5.570905 -21.99014 -4.419872 -88.26422 25.72661 14.74516 0 0 -22.46602 6.678943 16.69265 6.887164
2.994604 104.223 43.81485 -2.858271 0.5483941 2.764229 6.944756 -25.33802 -0.1293835 -0 15.56659 -0 -11.53103 -3.413364 -1.502517 -3.241549 12.36029 -12.23504 -0 34.83874 -0 -4.248465 -11.65651 9.466338 1.733987 -1.573939 2.05583 2.183786 8.799568 -7.438681 1.001913 22.87917 7.154335 2.597964 -24.21485 8.901345 1.989755 -15.67353 11.06809 92.18199 28.96457 -23.439 -0 0 4.756764 -14.52167 10.02903 8.699427 4.579698 -22.53713 -4.291772 -88.31298 25.46967 15.56168 0 0 -23.29273 6.53097 16.58147 7.990751
3.036699 105.5301 49.85537 -2.380141 -1.046649 2.289123 7.142963 -20.90264 0.3155596 -0 14.97262 -0 -12.35409 -3.711931 -2.287688 -3.197251 9.323458 -11.14806 -0 47.56932 -0 -3.64334 -9.089748 10.24833 1.525069 -1.616098 2.869898 1.943667 9.769064 -7.286279 1.28484 23.13757 6.63449 2.681234 -23.20282 8.485696 1.833498 -15.47293 11.1773 92.60393 29.34917 -23.587 -0 0 4.447006 -15.12696 10.93957 8.166988 4.16147 -22.93256 -4.530172 -88.05462 24.12111 15.36365 0 0 -22.49497 7.412794 16.45304 6.631523
2.975688 107.1971 55.77596 -1.650861 -2.860841 1.677345 7.177521 -15.06408 0.7653357 -0 14.67596 -0 -12.56405 -4.508694 -2.900478 -3.036925 4.667603 -10.02565 -0 56.7633 -0 -3.034497 -7.111548 11.63502 1.037257 -1.336779 3.744023 1.582205 10.58661 -6.853815 1.563444 23.42301 5.92026 2.697024 -21.90742 7.847795 1.798676 -15.64296 11.32128 92.07774 29.65064 -22.37773 -0 0 5.345388 -15.48188 11.57007 7.795097 3.936846 -22.74713 -4.695878 -88.48969 23.03905 15.96298 0 0 -20.54906 7.784429 16.15934 5.610514
2.845405 108.9803 61.4081 -1.033345 -4.276032 1.06456 7.138606 -8.981147 1.23518 -0 14.13298 -0 -12.38873 -5.878803 -3.219046 -2.640655 -1.092998 -9.068306 -0 60.65194 -0 -2.259898 -5.755945 13.17591 0.6009552 -0.9680014 4.623614 1.206334 11.21151 -6.275187 1.795777 23.56957 5.178226 2.423947 -21.10558 7.36645 1.521109 -16.54732 11.49723 91.17719 29.53769 -20.28054 -0 0 7.158968 -15.79885 11.93675 8.135589 3.700111 -22.16104 -4.665887 -89.41734 22.34584 17.66172 0 0 -18.57186 7.543192 15.75341 5.564653
2.705757 110.5827 66.69661 -0.6077326 -5.171892 0.5012294 7.012906 -3.128358 1.581194 -0 13.15946 -0 -11.95856 -7.832411 -3.208296 -1.93423 -7.329292 -8.181718 -0 59.09764 -0 -1.233011 -4.934825 14.68754 0.2424966 -0.6131974 5.374355 0.86441 11.63524 -5.67546 1.932374 23.55224 4.494612 1.910908 -20.76551 7.05619 1.072911 -18.01851 11.67325 89.99802 29.32663 -17.54348 -0 0 9.627291 -16.26428 12.29981 9.185363 3.471591 -21.34453 -4.443917 -90.44133 21.82696 19.9428 0 0 -16.89816 7.063418 15.33237 6.007554
2.618957 111.7401 71.68394 -0.4239578 -5.545666 -0.02252499 6.820633 2.170774 1.707151 -0 11.68361 -0 -11.35588 -10.35965 -2.91083 -0.8861878 -13.31866 -7.293697 -0 52.50462 -0 -0.02730548 -4.563609 16.09577 -0.03351022 -0.3353665 5.858561 0.6027068 11.80182 -5.13725 1.959919 23.41535 3.93525 1.249259 -20.72617 6.90541 0.5766351 -19.75578 11.79254 88.52926 29.2393 -14.3482 -0 0 12.43561 -17.00515 12.82444 10.82175 3.305661 -20.40499 -4.033298 -91.30409 21.37794 22.22063 0 0 -15.496 6.614278 15.02439 6.484747
2.629107 112.2906 76.48713 -0.4963365 -5.473783 -0.557201 6.600371 6.667096 1.597411 -0 9.811705 -0 -10.6866 -13.22947 -2.431677 0.4030672 -18.32232 -6.447355 -0 42.38082 -0 1.138625 -4.52584 17.35529 -0.2145714 -0.187754 6.017499 0.451004 11.6786 -4.700755 1.909516 23.23432 3.555042 0.5689847 -20.82943 6.91041 0.1406585 -21.4145 11.80425 86.84473 29.31872 -10.99732 -0 0 15.17145 -18.05613 13.52299 12.80215 3.232246 -19.44076 -3.469979 -91.93589 21.00617 24.07495 0 0 -14.16658 6.291217 14.95464 6.774634
2.747667 112.2129 81.24986 -0.7473895 -5.166299 -1.157377 6.36065 10.34625 1.313963 -0 7.910622 -0 -10.0609 -16.00132 -1.913257 1.671919 -21.89393 -5.802007 -0 31.2582 -0 1.955512 -4.679899 18.46444 -0.3144147 -0.1702475 5.914892 0.3859398 11.28916 -4.332266 1.847934 23.11008 3.371401 0.0273392 -20.89061 7.039783 -0.1578955 -22.68096 11.68551 85.1077 29.44134 -7.848497 -0 0 17.45603 -19.30791 14.22665 14.757 3.264322 -18.51688 -2.845796 -92.46767 20.76558 25.34756 0 0 -12.58781 6.030091 15.17104 6.878783
2.957481 111.6076 86.09376 -1.038383 -4.875925 -1.853035 6.070766 13.38426 0.946567 -0 6.454033 -0 -9.560594 -18.21614 -1.458415 2.625988 -24.06499 -5.523035 -0 21.52892 -0 2.199493 -4.907261 19.44 -0.3715621 -0.2246932 5.694435 0.3392292 10.71231 -3.95275 1.834412 23.12268 3.362502 -0.2558105 -20.75884 7.233672 -0.3017331 -23.3987 11.45208 83.51717 29.43065 -5.179786 -0 0 19.10108 -20.5582 14.68794 16.33739 3.4034 -17.66068 -2.279397 -93.09158 20.67769 26.12614 0 0 -10.54153 5.720598 15.60613 6.912365
3.230738 110.6338 91.10147 -1.259232 -4.753622 -2.642526 5.693108 15.95594 0.5567497 -0 5.762507 -0 -9.222808 -19.60452 -1.085826 3.114308 -25.17354 -5.655433 -0 14.32575 -0 1.871972 -5.141985 20.2825 -0.4235124 -0.2869652 5.480225 0.2487344 10.05024 -3.509985 1.886119 23.28613 3.48628 -0.2541834 -20.39289 7.433516 -0.328932 -23.60718 11.14497 82.2228 29.2057 -3.104612 -0 0 20.12934 -21.64777 14.75689 17.38691 3.635271 -16.88662 -1.855462 -93.8743 20.69741 26.58621 0 0 -8.095193 5.334231 16.12748 6.953054
